<?xml version="1.0" encoding="UTF-8" standalone="no"?>
<!DOCTYPE svg PUBLIC "-//W3C//DTD SVG 1.1//EN" "http://www.w3.org/Graphics/SVG/1.1/DTD/svg11.dtd">
<svg xmlns="http://www.w3.org/2000/svg" version="1.1" viewBox="0.00 0.00 682.00 1024.00">
<g stroke-width="2.00" fill="none" stroke-linecap="butt">
<path stroke="#426358" vector-effect="non-scaling-stroke" d="
  M 318.50 347.57
  Q 318.45 348.29 317.13 350.64
  Q 307.67 367.64 313.56 387.33"
/>
<path stroke="#987e3f" vector-effect="non-scaling-stroke" d="
  M 313.56 387.33
  Q 316.81 396.52 322.22 404.62"
/>
<path stroke="#9d662a" vector-effect="non-scaling-stroke" d="
  M 313.56 387.33
  Q 308.55 365.69 319.27 347.89"
/>
</g>
<path fill="#3d7b6c" d="
  M 318.50 347.57
  Q 318.45 348.29 317.13 350.64
  Q 307.67 367.64 313.56 387.33
  Q 316.81 396.52 322.22 404.62
  C 312.13 407.06 305.36 400.81 299.55 393.69
  Q 293.00 385.66 278.00 368.03
  Q 273.83 363.13 268.38 359.38
  C 256.99 351.55 240.42 352.28 233.09 365.15
  C 229.91 370.75 229.38 379.37 231.03 384.99
  C 234.95 398.41 244.32 408.85 253.19 418.82
  Q 272.56 440.62 297.90 462.84
  Q 306.12 470.05 309.70 478.06
  C 314.65 489.12 311.60 500.60 303.66 509.09
  C 296.10 517.17 286.72 514.04 278.76 508.38
  Q 271.25 503.05 263.34 496.06
  C 240.60 475.96 220.28 454.80 202.31 431.22
  Q 192.46 418.28 185.03 398.24
  Q 179.16 382.41 179.22 365.02
  C 179.29 347.17 185.83 326.06 198.52 312.86
  Q 215.99 294.69 240.70 293.13
  Q 251.78 292.43 262.02 296.32
  A 0.46 0.46 0.0 0 0 262.55 295.60
  C 240.97 268.02 253.91 226.89 288.92 219.71
  C 310.26 215.33 330.41 226.37 339.56 245.82
  C 343.15 253.42 343.66 262.03 342.85 270.48
  C 340.96 290.41 327.24 308.00 308.01 314.02
  C 302.78 315.65 295.91 315.71 290.89 315.27
  A 0.57 0.56 71.7 0 0 290.42 316.21
  L 318.50 347.57
  Z"
/>
<path fill="#f38011" d="
  M 322.22 404.62
  Q 316.81 396.52 313.56 387.33
  Q 308.55 365.69 319.27 347.89
  Q 331.88 329.35 354.20 329.00
  C 355.80 328.98 358.63 329.31 360.77 329.31
  A 0.62 0.62 0.0 0 0 361.38 328.60
  Q 357.77 306.33 369.66 286.61
  C 378.86 271.35 394.73 261.55 412.37 261.78
  Q 427.97 261.99 440.07 270.63
  C 465.27 288.60 468.60 323.99 468.07 352.02
  Q 467.79 367.26 464.22 381.15
  Q 455.83 413.77 436.72 439.20
  Q 422.48 458.14 403.61 476.10
  Q 374.59 503.73 341.60 528.60
  C 336.67 532.32 331.35 536.96 325.81 537.68
  Q 318.39 538.65 311.84 534.14
  Q 304.71 529.24 298.32 525.94
  A 0.41 0.41 0.0 0 1 298.39 525.18
  Q 301.71 524.15 305.62 522.24
  C 322.33 514.10 328.52 495.26 323.87 477.58
  Q 321.78 469.63 315.65 463.38
  Q 308.71 456.30 300.78 449.29
  C 292.19 441.70 286.06 435.92 280.40 427.88
  C 274.92 420.09 269.91 405.19 283.74 401.74
  C 288.06 400.67 293.33 403.69 296.47 406.46
  C 303.23 412.44 309.98 420.02 314.90 424.90
  C 323.28 433.22 334.13 440.65 345.88 441.80
  C 357.26 442.92 364.23 438.26 372.73 431.23
  C 385.06 421.02 397.56 409.56 405.86 396.39
  Q 411.16 387.98 412.11 378.66
  C 413.59 364.33 400.31 354.62 387.36 353.74
  C 379.51 353.21 372.67 356.60 367.00 361.76
  C 356.19 371.58 346.74 386.51 337.87 395.12
  C 332.41 400.42 329.20 403.27 322.22 404.62
  Z"
/>
<path fill="#474b43" d="
  M 319.27 347.89
  Q 308.55 365.69 313.56 387.33
  Q 307.67 367.64 317.13 350.64
  Q 318.45 348.29 318.50 347.57
  L 319.27 347.89
  Z"
/>
<ellipse fill="#474b43" cx="0.00" cy="0.00" transform="translate(232.63,586.22) rotate(-85.4)" rx="10.03" ry="9.81"/>
<circle fill="#474b43" cx="389.73" cy="586.24" r="9.90"/>
<path fill="#474b43" d="
  M 508.84 633.68
  L 534.92 667.57
  A 0.42 0.42 0.0 0 1 534.59 668.25
  L 518.36 668.25
  A 0.42 0.42 0.0 0 1 518.02 668.09
  L 495.14 638.34
  A 0.42 0.42 0.0 0 0 494.39 638.59
  L 494.39 667.88
  A 0.42 0.42 0.0 0 1 493.97 668.30
  L 480.30 668.30
  A 0.42 0.42 0.0 0 1 479.88 667.88
  L 479.88 578.19
  A 0.42 0.42 0.0 0 1 480.30 577.77
  L 493.92 577.77
  A 0.42 0.42 0.0 0 1 494.34 578.19
  L 494.34 628.68
  A 0.42 0.42 0.0 0 0 495.07 628.96
  L 516.87 604.79
  A 0.42 0.42 0.0 0 1 517.19 604.65
  L 533.63 604.65
  A 0.42 0.42 0.0 0 1 533.94 605.35
  L 508.86 633.14
  A 0.42 0.42 0.0 0 0 508.84 633.68
  Z"
/>
<path fill="#474b43" d="
  M 322.84 667.47
  L 322.84 580.82
  A 0.86 0.86 0.0 0 1 323.70 579.96
  L 337.49 579.96
  A 0.86 0.86 0.0 0 1 338.35 580.82
  L 338.35 653.70
  A 0.86 0.86 0.0 0 0 339.21 654.56
  L 373.03 654.56
  A 0.86 0.86 0.0 0 1 373.89 655.42
  L 373.89 667.47
  A 0.86 0.86 0.0 0 1 373.03 668.33
  L 323.70 668.33
  A 0.86 0.86 0.0 0 1 322.84 667.47
  Z"
/>
<path fill="#474b43" d="
  M 198.53 623.65
  C 201.79 624.60 203.71 625.00 206.06 626.76
  Q 214.71 633.28 214.88 644.50
  C 215.15 661.35 200.34 668.23 185.75 668.29
  Q 174.15 668.33 150.48 668.28
  A 0.98 0.97 90.0 0 1 149.51 667.30
  L 149.51 581.51
  A 1.14 1.14 0.0 0 1 150.65 580.37
  Q 166.20 580.36 180.32 580.55
  C 189.08 580.67 196.49 581.77 202.80 586.36
  C 209.47 591.21 211.76 599.34 211.03 607.29
  C 210.36 614.57 205.20 620.59 198.51 622.99
  A 0.35 0.35 0.0 0 0 198.53 623.65
  Z
  M 164.64 594.81
  L 164.80 617.23
  A 0.67 0.67 0.0 0 0 165.47 617.90
  L 182.03 617.78
  A 12.47 10.75 -0.4 0 0 194.43 606.95
  L 194.41 604.69
  A 12.47 10.75 -0.4 0 0 181.87 594.02
  L 165.31 594.14
  A 0.67 0.67 0.0 0 0 164.64 594.81
  Z
  M 164.69 630.85
  L 164.81 654.67
  A 0.40 0.40 0.0 0 0 165.21 655.06
  L 184.66 654.96
  A 13.39 11.41 -0.3 0 0 197.99 643.48
  L 197.99 641.68
  A 13.39 11.41 -0.3 0 0 184.54 630.34
  L 165.09 630.45
  A 0.40 0.40 0.0 0 0 164.69 630.85
  Z"
/>
<path fill="#474b43" d="
  M 281.9587 603.2201
  A 33.61 31.85 -89.9 0 1 313.7500 636.8856
  A 33.61 31.85 -89.9 0 1 281.8413 670.4399
  A 33.61 31.85 -89.9 0 1 250.0500 636.7744
  A 33.61 31.85 -89.9 0 1 281.9587 603.2201
  Z
  M 265.81 636.78
  C 265.81 646.84 270.40 657.48 282.02 657.48
  C 293.65 657.49 298.25 646.85 298.26 636.79
  C 298.26 626.73 293.66 616.09 282.04 616.09
  C 270.42 616.08 265.81 626.72 265.81 636.78
  Z"
/>
<path fill="#474b43" d="
  M 423.30 605.14
  A 0.90 0.90 0.0 0 1 424.20 606.04
  L 424.20 612.02
  A 0.57 0.57 0.0 0 0 425.23 612.36
  Q 430.82 604.67 440.74 603.52
  C 450.89 602.34 462.23 607.16 465.38 617.31
  C 466.50 620.92 466.93 624.60 466.96 628.96
  Q 467.11 646.88 466.97 667.69
  A 0.66 0.65 0.0 0 1 466.31 668.34
  L 453.03 668.34
  A 0.94 0.94 0.0 0 1 452.09 667.40
  Q 452.05 647.41 452.08 633.28
  Q 452.10 626.28 450.72 623.03
  C 447.20 614.74 437.19 614.27 430.56 618.88
  Q 425.19 622.61 425.08 630.30
  Q 424.92 641.09 424.99 667.39
  A 0.94 0.94 0.0 0 1 424.05 668.33
  L 411.28 668.33
  A 0.98 0.97 -0.0 0 1 410.30 667.36
  L 410.30 606.11
  A 0.98 0.97 -0.0 0 1 411.28 605.14
  L 423.30 605.14
  Z"
/>
<rect fill="#474b43" x="225.89" y="605.14" width="14.66" height="63.10" rx="0.84"/>
<rect fill="#474b43" x="382.51" y="605.15" width="14.68" height="63.18" rx="0.90"/>
<path fill="#474b43" d="
  M 482.42 713.38
  C 482.47 718.24 485.07 722.60 489.51 724.18
  Q 495.15 726.18 499.28 721.64
  A 1.03 1.02 42.0 0 1 500.72 721.57
  L 503.04 723.66
  A 1.21 1.20 -47.1 0 1 503.10 725.39
  Q 500.52 728.07 498.94 728.69
  Q 492.44 731.24 486.54 729.10
  C 480.00 726.74 476.08 720.22 476.01 713.44
  C 475.94 706.66 479.73 700.07 486.22 697.57
  Q 492.08 695.32 498.63 697.74
  Q 500.22 698.33 502.85 700.95
  A 1.21 1.20 46.0 0 1 502.83 702.68
  L 500.55 704.82
  A 1.03 1.02 -43.2 0 1 499.11 704.78
  Q 494.89 700.32 489.29 702.44
  C 484.89 704.11 482.38 708.52 482.42 713.38
  Z"
/>
<path fill="#474b43" d="
  M 523.85 725.00
  C 527.78 724.54 530.04 719.87 525.94 717.60
  C 522.96 715.95 518.39 715.01 515.98 713.23
  C 510.66 709.32 510.95 702.37 516.00 698.53
  Q 518.13 696.91 521.99 696.58
  Q 528.99 695.99 533.15 701.20
  A 1.21 1.21 0.0 0 1 532.81 703.01
  L 530.10 704.58
  A 1.22 1.22 0.0 0 1 528.49 704.22
  C 526.82 701.86 521.06 700.38 518.95 703.59
  Q 516.83 706.80 520.60 708.97
  C 524.72 711.34 534.71 712.50 534.20 720.80
  Q 533.74 728.49 525.51 729.77
  Q 517.35 731.05 512.18 725.06
  A 1.07 1.07 0.0 0 1 512.46 723.43
  L 515.96 721.41
  A 1.09 1.07 -32.3 0 1 517.38 721.72
  Q 520.00 725.45 523.85 725.00
  Z"
/>
<path fill="#474b43" d="
  M 161.31 729.35
  Q 159.28 729.35 158.74 729.29
  A 0.66 0.65 3.0 0 1 158.15 728.65
  L 158.02 703.41
  A 0.70 0.69 89.7 0 0 157.33 702.72
  L 150.20 702.75
  A 1.18 1.18 0.0 0 1 149.02 701.58
  L 149.00 698.32
  A 1.23 1.22 -0.1 0 1 150.23 697.09
  Q 155.37 697.11 161.28 697.12
  Q 167.19 697.11 172.33 697.08
  A 1.23 1.22 0.1 0 1 173.56 698.31
  L 173.55 701.56
  A 1.18 1.18 0.0 0 1 172.37 702.74
  L 165.24 702.71
  A 0.70 0.69 -89.8 0 0 164.55 703.41
  L 164.46 728.64
  A 0.66 0.65 -3.1 0 1 163.87 729.29
  Q 163.33 729.35 161.31 729.35
  Z"
/>
<path fill="#474b43" d="
  M 196.07 710.60
  Q 201.40 710.60 202.13 710.53
  A 0.79 0.78 -2.9 0 0 202.84 709.75
  L 202.84 697.98
  A 0.81 0.81 0.0 0 1 203.65 697.17
  L 208.42 697.17
  A 0.71 0.71 0.0 0 1 209.13 697.87
  Q 209.16 701.22 209.16 713.31
  Q 209.16 725.40 209.12 728.75
  A 0.71 0.71 0.0 0 1 208.41 729.45
  L 203.64 729.44
  A 0.81 0.81 0.0 0 1 202.83 728.63
  L 202.84 716.86
  A 0.79 0.78 2.9 0 0 202.13 716.08
  Q 201.40 716.01 196.07 716.01
  Q 190.74 716.01 190.01 716.08
  A 0.79 0.78 -2.9 0 0 189.30 716.86
  L 189.30 728.63
  A 0.81 0.81 0.0 0 1 188.49 729.44
  L 183.72 729.44
  A 0.71 0.71 0.0 0 1 183.01 728.74
  Q 182.98 725.39 182.98 713.30
  Q 182.98 701.22 183.02 697.86
  A 0.71 0.71 0.0 0 1 183.73 697.17
  L 188.50 697.17
  A 0.81 0.81 0.0 0 1 189.31 697.98
  L 189.30 709.75
  A 0.79 0.78 2.9 0 0 190.01 710.53
  Q 190.74 710.60 196.07 710.60
  Z"
/>
<path fill="#474b43" d="
  M 240.14 713.25
  Q 240.14 714.91 240.11 715.28
  A 0.71 0.71 0.0 0 1 239.40 715.93
  L 228.56 715.93
  A 0.54 0.54 0.0 0 0 228.02 716.47
  L 228.02 723.26
  A 0.57 0.56 90.0 0 0 228.58 723.83
  L 240.49 723.83
  A 0.94 0.94 0.0 0 1 241.43 724.77
  L 241.43 728.38
  A 1.00 0.99 -90.0 0 1 240.44 729.38
  L 222.43 729.38
  A 0.67 0.66 -0.7 0 1 221.77 728.73
  Q 221.75 728.18 221.72 713.29
  Q 221.69 698.40 221.70 697.85
  A 0.67 0.66 0.4 0 1 222.36 697.19
  L 240.37 697.12
  A 1.00 0.99 89.8 0 1 241.37 698.12
  L 241.38 701.73
  A 0.94 0.94 0.0 0 1 240.45 702.67
  L 228.54 702.72
  A 0.57 0.56 89.8 0 0 227.98 703.29
  L 228.01 710.08
  A 0.54 0.54 0.0 0 0 228.55 710.62
  L 239.39 710.57
  A 0.71 0.71 0.0 0 1 240.10 711.22
  Q 240.13 711.59 240.14 713.25
  Z"
/>
<path fill="#474b43" d="
  M 252.21 728.43
  L 252.21 697.63
  A 0.55 0.55 0.0 0 1 252.76 697.08
  Q 258.44 697.14 262.33 697.04
  C 268.32 696.87 274.03 698.92 274.72 705.22
  Q 275.52 712.54 269.59 715.98
  A 0.66 0.66 0.0 0 0 269.35 716.88
  L 276.50 729.27
  A 0.07 0.07 0.0 0 1 276.44 729.38
  L 269.73 729.38
  A 0.27 0.27 0.0 0 1 269.50 729.25
  Q 266.24 724.05 264.53 720.57
  C 263.09 717.63 262.01 717.52 258.99 717.87
  A 0.66 0.66 0.0 0 0 258.40 718.53
  L 258.40 728.45
  A 0.91 0.91 0.0 0 1 257.49 729.36
  L 253.14 729.36
  A 0.93 0.93 0.0 0 1 252.21 728.43
  Z
  M 258.42 703.69
  L 258.32 711.35
  A 1.15 1.15 0.0 0 0 259.45 712.52
  L 263.52 712.57
  A 4.80 4.48 0.8 0 0 268.38 708.16
  L 268.40 707.16
  A 4.80 4.48 0.8 0 0 263.66 702.61
  L 259.59 702.56
  A 1.15 1.15 0.0 0 0 258.42 703.69
  Z"
/>
<path fill="#474b43" d="
  M 300.23 697.07
  Q 302.00 697.08 303.09 697.15
  A 1.06 1.05 -7.7 0 1 304.01 697.85
  L 315.13 728.46
  A 0.68 0.68 0.0 0 1 314.49 729.38
  L 309.83 729.38
  A 1.32 1.31 -9.7 0 1 308.59 728.51
  L 306.54 722.87
  A 0.96 0.96 0.0 0 0 305.64 722.24
  Q 302.73 722.24 300.18 722.24
  Q 297.62 722.23 294.71 722.22
  A 0.96 0.96 0.0 0 0 293.81 722.84
  L 291.74 728.48
  A 1.32 1.31 10.0 0 1 290.49 729.34
  L 285.83 729.32
  A 0.68 0.68 0.0 0 1 285.20 728.40
  L 296.44 697.83
  A 1.06 1.05 7.9 0 1 297.36 697.14
  Q 298.45 697.07 300.23 697.07
  Z
  M 296.02 716.52
  A 0.41 0.41 0.0 0 0 296.42 717.05
  L 304.11 716.99
  A 0.41 0.41 0.0 0 0 304.49 716.45
  L 300.54 704.31
  A 0.41 0.41 0.0 0 0 299.76 704.31
  L 296.02 716.52
  Z"
/>
<path fill="#474b43" d="
  M 331.62 718.97
  L 331.62 728.46
  A 0.91 0.90 0.0 0 1 330.71 729.36
  L 326.04 729.36
  A 0.89 0.88 0.0 0 1 325.15 728.48
  L 325.15 697.83
  A 0.71 0.71 0.0 0 1 325.90 697.12
  C 334.49 697.56 348.86 694.57 347.96 708.34
  C 347.36 717.48 339.79 718.50 332.42 718.19
  A 0.78 0.77 -88.9 0 0 331.62 718.97
  Z
  M 331.58 703.53
  L 331.64 712.06
  A 0.86 0.86 0.0 0 0 332.51 712.92
  L 336.52 712.89
  A 5.15 4.95 -0.4 0 0 341.63 707.91
  L 341.63 707.55
  A 5.15 4.95 -0.4 0 0 336.44 702.63
  L 332.43 702.66
  A 0.86 0.86 0.0 0 0 331.58 703.53
  Z"
/>
<path fill="#474b43" d="
  M 358.61 713.32
  Q 358.52 698.40 358.53 697.85
  A 0.67 0.67 0.0 0 1 359.19 697.19
  L 377.24 697.05
  A 1.00 0.99 89.6 0 1 378.24 698.05
  L 378.26 701.67
  A 0.94 0.94 0.0 0 1 377.33 702.61
  L 365.40 702.70
  A 0.57 0.56 89.6 0 0 364.84 703.28
  L 364.89 710.08
  A 0.54 0.54 0.0 0 0 365.44 710.62
  L 376.30 710.54
  A 0.72 0.71 -2.7 0 1 377.02 711.19
  Q 377.05 711.55 377.06 713.22
  Q 377.07 714.88 377.04 715.25
  A 0.72 0.71 2.1 0 1 376.33 715.91
  L 365.47 715.94
  A 0.54 0.54 0.0 0 0 364.93 716.49
  L 364.95 723.29
  A 0.57 0.56 89.8 0 0 365.51 723.86
  L 377.45 723.82
  A 0.94 0.94 0.0 0 1 378.39 724.76
  L 378.40 728.37
  A 1.00 0.99 89.8 0 1 377.41 729.38
  L 359.37 729.44
  A 0.67 0.67 0.0 0 1 358.70 728.79
  Q 358.69 728.24 358.61 713.32
  Z"
/>
<path fill="#474b43" d="
  M 402.21 724.78
  C 406.16 724.80 408.89 721.60 409.10 717.71
  Q 409.64 707.82 409.38 698.27
  A 1.14 1.14 0.0 0 1 410.52 697.10
  L 414.56 697.10
  A 1.18 1.17 0.0 0 1 415.74 698.27
  Q 415.75 711.68 415.58 717.72
  C 415.32 726.20 410.31 729.99 402.19 729.96
  C 394.07 729.92 389.08 726.10 388.90 717.62
  Q 388.78 711.57 388.89 698.16
  A 1.18 1.17 0.5 0 1 390.08 697.00
  L 394.12 697.03
  A 1.14 1.14 0.0 0 1 395.25 698.21
  Q 394.92 707.76 395.37 717.65
  C 395.55 721.55 398.26 724.77 402.21 724.78
  Z"
/>
<path fill="#474b43" d="
  M 437.49 697.11
  Q 443.40 697.08 448.54 697.04
  A 1.23 1.22 -0.1 0 1 449.78 698.26
  L 449.78 701.52
  A 1.18 1.18 0.0 0 1 448.60 702.70
  L 441.47 702.70
  A 0.70 0.69 -90.0 0 0 440.78 703.40
  L 440.78 728.65
  A 0.66 0.65 -3.3 0 1 440.20 729.30
  Q 439.66 729.36 437.63 729.37
  Q 435.60 729.38 435.06 729.32
  A 0.66 0.65 2.8 0 1 434.47 728.68
  L 434.25 703.43
  A 0.70 0.69 89.5 0 0 433.55 702.73
  L 426.42 702.80
  A 1.18 1.18 0.0 0 1 425.23 701.63
  L 425.20 698.37
  A 1.23 1.22 -0.4 0 1 426.43 697.13
  Q 431.57 697.13 437.49 697.11
  Z"
/>
<rect fill="#474b43" x="-3.04" y="-16.13" transform="translate(462.41,713.24) rotate(-0.1)" width="6.08" height="32.26" rx="0.97"/>
</svg>
