<?xml version="1.0" encoding="UTF-8" standalone="no"?>
<!DOCTYPE svg PUBLIC "-//W3C//DTD SVG 1.1//EN" "http://www.w3.org/Graphics/SVG/1.1/DTD/svg11.dtd">
<svg xmlns="http://www.w3.org/2000/svg" version="1.1" viewBox="0.00 0.00 1024.00 1024.00">
<path stroke="#9a804a" stroke-width="2.00" fill="none" stroke-linecap="butt" vector-effect="non-scaling-stroke" d="
  M 487.57 468.98
  Q 487.00 470.50 484.67 475.69
  C 480.33 485.34 478.96 497.01 479.32 508.50
  Q 479.76 522.30 485.14 535.35
  Q 488.50 543.51 495.50 551.61"
/>
<path fill="#357e79" d="
  M 487.57 468.98
  Q 487.00 470.50 484.67 475.69
  C 480.33 485.34 478.96 497.01 479.32 508.50
  Q 479.76 522.30 485.14 535.35
  Q 488.50 543.51 495.50 551.61
  C 483.92 553.89 475.66 550.00 466.45 543.37
  Q 464.57 542.02 455.40 533.68
  Q 452.98 531.47 452.50 530.71
  C 451.50 529.12 449.96 528.18 448.43 526.43
  Q 446.14 523.79 441.52 518.50
  Q 437.42 513.80 434.79 510.47
  C 427.52 501.28 420.29 492.82 410.55 485.70
  Q 403.07 480.24 393.02 477.78
  C 387.67 476.47 382.58 477.04 376.72 477.08
  A 7.05 6.99 35.8 0 0 374.69 477.40
  Q 372.02 478.23 370.58 478.56
  C 364.81 479.88 361.00 483.34 356.85 487.11
  Q 348.67 494.54 346.31 506.38
  Q 345.92 508.34 345.99 509.66
  Q 346.07 511.21 345.59 512.41
  A 2.63 2.54 -35.0 0 0 345.40 513.38
  Q 345.38 525.62 350.57 536.07
  C 352.50 539.97 356.00 544.20 358.55 547.97
  Q 360.25 550.48 362.03 552.53
  C 372.13 564.11 385.38 576.76 406.58 597.97
  Q 414.50 605.90 420.26 611.14
  Q 430.07 620.06 434.39 623.60
  Q 440.53 628.63 443.02 630.78
  Q 449.49 636.36 451.54 637.94
  Q 455.23 640.80 460.84 645.95
  C 472.29 656.46 478.96 667.52 477.82 683.40
  C 476.87 696.55 469.53 712.01 455.99 716.24
  Q 447.48 718.90 441.75 718.00
  Q 435.09 716.95 433.86 716.71
  A 6.11 5.89 -26.4 0 1 432.59 716.31
  Q 427.78 714.19 425.62 712.86
  Q 411.19 704.04 396.29 692.20
  Q 389.34 686.69 377.40 676.59
  C 376.80 676.09 376.04 675.08 375.04 674.60
  Q 373.17 673.68 372.07 671.99
  A 2.75 2.52 3.8 0 0 371.38 671.27
  C 368.49 669.26 365.33 665.68 362.18 663.15
  Q 358.42 660.14 353.87 655.39
  C 352.50 653.95 350.38 652.48 348.83 650.91
  Q 342.07 644.05 339.42 641.52
  Q 334.70 637.02 330.09 632.10
  C 323.74 625.33 320.04 621.83 315.20 616.20
  C 312.16 612.68 310.02 610.71 307.42 607.54
  Q 298.65 596.84 289.68 585.61
  A 3.10 2.85 16.0 0 1 289.30 584.99
  C 288.26 582.68 286.41 581.04 285.17 579.15
  Q 275.86 564.95 272.84 558.42
  Q 267.38 546.62 264.74 538.32
  Q 264.13 536.42 262.94 532.26
  Q 258.65 517.32 258.12 508.49
  Q 257.81 503.22 257.14 501.65
  A 1.33 1.20 36.4 0 1 257.04 501.16
  L 257.05 481.54
  A 2.46 2.40 57.7 0 1 257.26 480.55
  Q 257.65 479.70 258.13 474.76
  Q 259.10 464.68 262.17 454.69
  Q 263.38 450.75 264.33 448.53
  C 265.62 445.51 266.26 443.03 267.59 440.44
  Q 274.24 427.52 281.13 418.87
  Q 286.21 412.50 295.81 404.44
  Q 298.00 402.61 300.68 401.14
  C 302.75 400.00 304.82 398.07 307.17 396.72
  Q 326.11 385.84 346.76 383.03
  Q 358.51 381.44 374.59 382.21
  C 376.97 382.32 379.40 383.16 382.20 382.92
  Q 383.09 382.84 385.35 383.21
  Q 392.64 384.40 396.69 385.80
  A 0.77 0.76 -8.8 0 0 397.56 384.62
  Q 391.04 375.94 387.45 365.85
  Q 385.51 360.40 384.30 356.35
  A 5.37 5.25 37.5 0 1 384.07 354.74
  Q 384.08 352.10 383.26 349.55
  A 4.82 4.70 -55.1 0 1 383.03 348.15
  Q 382.97 337.16 383.14 335.00
  Q 384.39 318.23 393.70 302.69
  Q 399.42 293.16 408.00 285.50
  Q 412.87 281.17 419.92 276.93
  Q 438.09 266.01 459.49 266.08
  C 463.21 266.09 465.86 266.79 469.50 267.02
  Q 470.60 267.09 473.47 267.67
  Q 483.28 269.68 493.05 274.27
  C 497.05 276.15 500.06 278.93 503.57 280.85
  C 505.95 282.15 508.00 284.64 509.95 285.83
  A 2.51 2.45 1.0 0 1 510.74 286.63
  Q 511.71 288.23 513.35 289.33
  A 3.52 3.46 -3.2 0 1 514.11 290.00
  C 523.61 301.02 530.20 312.74 532.68 327.01
  C 533.21 330.05 533.24 332.83 533.94 336.36
  A 7.54 7.37 39.6 0 1 534.08 337.69
  Q 534.28 345.23 532.94 353.74
  Q 530.34 370.19 520.76 384.03
  C 516.65 389.96 511.18 396.96 504.99 400.77
  A 4.54 4.34 4.6 0 0 504.19 401.42
  Q 502.62 403.06 501.55 403.80
  C 492.82 409.84 480.75 415.59 470.20 416.69
  Q 468.55 416.86 462.24 417.37
  C 456.43 417.84 449.25 416.99 444.85 416.59
  A 0.45 0.45 0.0 0 0 444.46 417.33
  C 447.66 421.18 451.31 424.56 454.52 427.82
  Q 458.13 431.49 462.36 436.30
  Q 471.87 447.09 474.90 450.85
  Q 480.21 457.44 487.57 468.98
  Z"
/>
<path fill="#ff821a" d="
  M 495.50 551.61
  Q 488.50 543.51 485.14 535.35
  Q 479.76 522.30 479.32 508.50
  C 478.96 497.01 480.33 485.34 484.67 475.69
  Q 487.00 470.50 487.57 468.98
  C 492.34 461.55 496.79 455.45 503.56 450.08
  Q 507.93 446.61 517.32 442.10
  Q 523.97 438.91 537.31 437.69
  A 1.96 1.87 -55.7 0 0 537.78 437.59
  Q 538.97 437.17 540.99 437.03
  Q 547.04 436.61 554.01 437.90
  Q 555.24 438.13 556.11 438.03
  A 1.10 1.09 -7.8 0 0 557.07 436.77
  Q 555.20 424.87 557.15 412.14
  Q 557.34 410.88 557.75 409.61
  C 558.10 408.51 557.97 407.20 558.22 405.82
  Q 560.20 394.94 565.30 384.28
  C 567.63 379.40 570.45 375.39 573.68 370.25
  C 574.25 369.35 575.33 368.73 575.77 368.04
  Q 576.95 366.16 579.62 363.78
  A 4.91 4.77 89.2 0 0 580.29 363.07
  Q 581.61 361.38 585.03 358.28
  Q 599.08 345.55 617.21 340.74
  Q 619.43 340.15 620.05 340.11
  C 622.47 339.94 624.00 338.80 626.60 338.81
  Q 627.95 338.81 629.88 338.26
  A 4.02 3.73 -52.3 0 1 630.79 338.11
  Q 639.88 337.73 646.90 338.32
  C 655.88 339.09 664.04 341.91 672.62 345.87
  Q 680.90 349.70 686.40 354.10
  Q 695.83 361.66 705.03 372.91
  A 6.18 5.93 14.1 0 1 705.77 374.09
  Q 707.57 377.82 710.19 381.09
  A 3.81 3.74 -75.4 0 1 710.76 382.08
  Q 711.79 384.80 712.96 386.94
  Q 715.09 390.84 715.26 391.75
  Q 715.45 392.80 717.09 395.97
  Q 717.55 396.87 718.54 400.32
  Q 723.33 416.90 725.06 431.99
  Q 725.48 435.61 725.72 436.84
  C 726.46 440.65 725.82 445.07 726.44 448.59
  C 727.43 454.22 727.06 458.02 727.50 464.64
  C 728.02 472.26 727.44 482.13 727.00 488.24
  Q 725.76 505.40 720.20 526.56
  C 719.96 527.46 719.99 528.51 719.69 529.44
  Q 712.96 549.86 710.23 555.77
  Q 703.14 571.11 698.53 578.56
  Q 693.74 586.30 692.06 589.10
  Q 687.70 596.32 685.22 599.35
  C 681.48 603.91 678.10 609.18 674.33 613.64
  Q 657.27 633.80 648.71 642.46
  Q 638.23 653.07 621.97 667.75
  Q 608.72 679.71 593.74 691.36
  Q 577.15 704.25 564.64 713.94
  Q 559.63 717.83 551.94 723.08
  Q 548.98 725.10 539.34 732.34
  Q 537.05 734.06 522.46 744.07
  Q 516.40 748.23 512.21 750.47
  Q 504.47 754.60 501.18 755.43
  C 492.11 757.73 487.22 754.89 478.62 751.26
  A 6.55 6.25 72.9 0 1 477.48 750.62
  Q 475.21 749.01 471.06 746.91
  A 6.03 5.67 -11.3 0 1 470.21 746.38
  Q 465.77 743.02 460.41 738.83
  Q 458.73 737.51 456.95 735.13
  A 1.08 1.08 0.0 0 1 457.89 733.40
  Q 463.99 733.83 469.37 731.17
  Q 478.61 726.58 484.83 719.33
  Q 486.37 717.53 486.66 717.30
  C 488.34 715.95 488.67 714.53 489.88 713.21
  Q 491.13 711.84 491.51 711.28
  Q 497.37 702.56 499.18 693.01
  A 2.77 2.76 64.5 0 1 499.48 692.16
  Q 499.87 691.44 499.88 691.12
  Q 500.02 687.69 500.42 682.86
  C 500.77 678.59 500.03 675.54 499.97 671.69
  Q 499.93 669.62 499.32 667.26
  Q 495.97 654.36 487.17 644.77
  C 482.97 640.19 477.42 634.91 472.03 630.38
  Q 463.52 623.24 452.56 614.25
  Q 441.35 605.06 434.73 598.55
  Q 428.10 592.02 421.51 582.51
  A 1.32 1.29 17.7 0 1 421.35 582.21
  L 418.02 574.05
  A 0.20 0.17 40.3 0 1 418.01 573.99
  Q 417.97 572.06 417.47 570.61
  C 416.41 567.55 416.87 563.55 417.02 560.19
  A 3.73 3.63 -34.8 0 1 417.24 559.06
  Q 419.48 552.94 421.96 550.03
  Q 424.15 547.46 428.97 545.97
  A 0.40 0.35 30.1 0 1 429.12 545.94
  L 437.59 545.94
  A 2.87 2.83 51.8 0 1 438.30 546.03
  Q 443.56 547.39 446.95 550.30
  Q 454.10 556.45 461.06 563.19
  Q 482.48 583.96 484.61 585.85
  Q 489.44 590.15 492.54 592.36
  Q 494.09 593.47 495.76 595.16
  A 7.51 7.12 -4.3 0 0 496.90 596.09
  Q 503.34 600.43 509.47 603.36
  Q 514.80 605.90 519.00 606.77
  C 519.86 606.95 520.97 607.87 522.11 607.89
  Q 524.57 607.94 527.16 608.74
  A 4.18 4.00 -35.5 0 0 528.46 608.93
  C 533.33 608.91 539.06 609.29 544.15 608.42
  Q 552.49 607.00 558.63 604.34
  Q 570.70 599.11 582.33 589.57
  Q 595.74 578.58 606.68 567.79
  Q 617.70 556.91 620.92 553.32
  Q 628.35 545.05 633.09 537.10
  Q 636.39 531.58 638.41 522.77
  C 639.38 518.55 638.95 512.97 638.91 509.49
  A 2.64 2.58 34.9 0 0 638.73 508.54
  Q 638.59 508.19 638.25 507.69
  C 637.66 506.83 638.02 504.88 637.39 503.64
  C 636.23 501.36 636.33 499.30 635.11 497.15
  Q 625.11 479.58 605.05 477.13
  Q 602.53 476.83 594.09 477.42
  Q 581.85 478.29 571.41 485.39
  Q 564.21 490.29 557.88 496.40
  Q 554.12 500.04 547.81 507.72
  Q 542.99 513.58 538.17 519.42
  Q 531.81 527.11 526.76 532.02
  C 518.91 539.66 511.44 545.39 501.82 549.80
  Q 498.12 551.50 495.50 551.61
  Z"
/>
</svg>
